<?xml version="1.0" standalone="no"?>
<!DOCTYPE svg PUBLIC "-//W3C//DTD SVG 20010904//EN"
 "http://www.w3.org/TR/2001/REC-SVG-20010904/DTD/svg10.dtd">
<svg version="1.0" xmlns="http://www.w3.org/2000/svg"
 width="360.000000pt" height="360.000000pt" viewBox="0 0 360.000000 360.000000"
 preserveAspectRatio="xMidYMid meet">

<g transform="translate(0.000000,360.000000) scale(0.100000,-0.100000)"
fill="#000000" stroke="none">
<path d="M1596 3590 c-359 -45 -708 -200 -976 -432 -272 -236 -478 -571 -564
-916 -44 -178 -51 -238 -50 -452 0 -183 3 -219 28 -335 34 -163 83 -310 146
-439 232 -478 668 -833 1178 -960 178 -44 238 -51 452 -50 183 0 219 3 335 28
163 34 310 83 439 146 478 232 833 668 960 1178 44 178 51 238 50 452 0 183
-3 219 -28 335 -89 424 -291 765 -611 1033 -249 209 -526 337 -860 399 -95 17
-401 25 -499 13z m326 -739 c33 -29 33 -29 36 -139 3 -102 5 -110 26 -120 32
-15 240 -216 291 -282 88 -114 145 -247 145 -336 0 -57 -31 -152 -70 -216 -42
-68 -136 -183 -189 -231 -40 -36 -43 -37 -121 -37 l-80 0 0 -100 0 -100 115 0
c143 0 165 8 259 100 l72 70 276 80 c152 44 279 80 282 80 3 0 6 -33 6 -72 l0
-73 -68 -35 c-97 -50 -142 -96 -232 -239 -44 -69 -97 -147 -117 -173 -57 -71
-134 -125 -197 -138 -38 -8 -215 -10 -578 -7 -575 4 -563 3 -698 68 -88 43
-203 159 -252 254 -44 84 -68 173 -68 249 l0 56 275 0 275 0 0 -27 c0 -83 57
-161 133 -182 25 -7 96 -11 177 -9 l135 3 3 98 3 97 -135 0 c-74 0 -137 4
-141 9 -3 6 18 45 46 88 71 109 135 245 155 328 37 161 -17 408 -152 694 -30
63 -52 116 -50 118 3 4 135 -29 259 -64 15 -5 17 3 17 74 0 84 13 117 54 133
41 17 75 11 108 -19z m-503 -434 c53 -129 83 -245 88 -350 6 -109 -8 -163 -74
-284 l-35 -63 -254 0 c-179 0 -254 3 -254 11 0 6 95 160 212 343 249 389 266
416 278 416 4 0 22 -33 39 -73z"/>
</g>
</svg>
